<?xml version="1.0" encoding="UTF-8" standalone="no"?>
<svg
   xmlns:sketch="http://www.bohemiancoding.com/sketch/ns"
   xmlns:dc="http://purl.org/dc/elements/1.1/"
   xmlns:cc="http://creativecommons.org/ns#"
   xmlns:rdf="http://www.w3.org/1999/02/22-rdf-syntax-ns#"
   xmlns:svg="http://www.w3.org/2000/svg"
   xmlns="http://www.w3.org/2000/svg"
   xmlns:xlink="http://www.w3.org/1999/xlink"
   xmlns:sodipodi="http://sodipodi.sourceforge.net/DTD/sodipodi-0.dtd"
   xmlns:inkscape="http://www.inkscape.org/namespaces/inkscape"
   width="16"
   height="16"
   viewBox="0 0 16 16"
   version="1.1"
   id="svg3807"
   sodipodi:docname="vim.svg"
   inkscape:version="0.92.4 (5da689c313, 2019-01-14)">
  <metadata
     id="metadata3811">
    <rdf:RDF>
      <cc:Work
         rdf:about="">
        <dc:format>image/svg+xml</dc:format>
        <dc:type
           rdf:resource="http://purl.org/dc/dcmitype/StillImage" />
        <dc:title>vim</dc:title>
      </cc:Work>
    </rdf:RDF>
  </metadata>
  <sodipodi:namedview
     pagecolor="#ffffff"
     bordercolor="#666666"
     borderopacity="1"
     objecttolerance="10"
     gridtolerance="10"
     guidetolerance="10"
     inkscape:pageopacity="0"
     inkscape:pageshadow="2"
     inkscape:window-width="1920"
     inkscape:window-height="1017"
     id="namedview3809"
     showgrid="false"
     inkscape:zoom="37.476659"
     inkscape:cx="9.887009"
     inkscape:cy="8.1125501"
     inkscape:window-x="-8"
     inkscape:window-y="-8"
     inkscape:window-maximized="1"
     inkscape:current-layer="svg3807" />
  <title
     id="title3763">vim</title>
  <description>Created with Sketch (http://www.bohemiancoding.com/sketch)</description>
  <defs
     id="defs3783">
    <path
       id="path-1"
       d="m 12.447338,285.15518 212.635932,212.4631 c 16.53789,16.52446 43.3661,16.50948 59.88901,0 l 212.63593,-212.4631 c 16.5379,-16.52445 16.52291,-43.33086 0,-59.84034 L 284.97228,12.851744 c -16.53789,-16.524453 -43.3661,-16.5094791 -59.88901,0 L 12.447338,225.31484 c -16.5378953,16.52446 -16.5229091,43.33086 0,59.84034 z"
       inkscape:connector-curvature="0" />
    <linearGradient
       x1="254.94804"
       y1="493.79276"
       x2="254.94804"
       y2="16.932743"
       id="linearGradient-2"
       gradientTransform="scale(1.0004066,0.99959352)"
       gradientUnits="userSpaceOnUse">
      <stop
         stop-color="#FFFFFF"
         offset="0%"
         id="stop3766" />
      <stop
         stop-color="#CFFFAE"
         offset="100%"
         id="stop3768" />
    </linearGradient>
    <path
       id="path-3"
       d="m 28.12266,283.24866 198.91659,198.75491 c 15.47087,15.45829 40.56811,15.44428 56.02496,0 L 481.9808,283.24866 c 15.47086,-15.45829 15.45684,-40.53514 0,-55.97942 L 283.06421,28.514325 c -15.47087,-15.45829 -40.56812,-15.444282 -56.02496,0 L 28.12266,227.26924 c -15.470865,15.45829 -15.456846,40.53514 0,55.97942 z"
       inkscape:connector-curvature="0" />
    <linearGradient
       x1="254.97165"
       y1="477.48428"
       x2="254.97165"
       y2="33.039116"
       id="linearGradient-4"
       gradientTransform="scale(1.0004066,0.99959352)"
       gradientUnits="userSpaceOnUse">
      <stop
         stop-color="#B4E075"
         offset="0%"
         id="stop3772" />
      <stop
         stop-color="#67B300"
         offset="100%"
         id="stop3774" />
    </linearGradient>
    <path
       id="path-5"
       d="M 43.571902,281.24504 228.96702,466.48947 c 14.41923,14.40751 37.81047,14.39445 52.21663,0 L 466.57877,281.24504 c 14.41922,-14.4075 14.40616,-37.77974 0,-52.17419 L 281.18365,43.82642 c -14.41922,-14.407503 -37.81047,-14.394448 -52.21663,0 L 43.571902,229.07085 c -14.419223,14.40751 -14.406157,37.77974 0,52.17419 z"
       inkscape:connector-curvature="0" />
    <linearGradient
       x1="237.31996"
       y1="48.299911"
       x2="237.31996"
       y2="483.6326"
       id="linearGradient-6"
       gradientTransform="scale(1.0201447,0.98025309)"
       gradientUnits="userSpaceOnUse">
      <stop
         stop-color="#F1F1F1"
         offset="0%"
         id="stop3778" />
      <stop
         stop-color="#C1C1C1"
         offset="100%"
         id="stop3780" />
    </linearGradient>
  </defs>
  <g
     id="Page-1"
     sketch:type="MSPage"
     style="fill:none;fill-rule:evenodd;stroke:none;stroke-width:1"
     transform="matrix(0.03135501,0,0,0.0313556,-0.00520701,0.01472546)">
    <g
       id="Group"
       sketch:type="MSLayerGroup"
       transform="translate(1)">
      <g
         id="bottom">
        <use
           sketch:type="MSShapeGroup"
           xlink:href="#path-1"
           id="use3785"
           style="fill:#000000;fill-rule:evenodd"
           x="0"
           y="0"
           width="100%"
           height="100%" />
        <use
           xlink:href="#path-1"
           id="use3787"
           style="fill:none"
           x="0"
           y="0"
           width="100%"
           height="100%" />
      </g>
      <g
         id="middle">
        <use
           sketch:type="MSShapeGroup"
           xlink:href="#path-3"
           id="use3790"
           style="fill:url(#linearGradient-2);fill-rule:evenodd"
           x="0"
           y="0"
           width="100%"
           height="100%" />
        <use
           xlink:href="#path-3"
           id="use3792"
           style="fill:none"
           x="0"
           y="0"
           width="100%"
           height="100%" />
      </g>
      <g
         id="top">
        <use
           sketch:type="MSShapeGroup"
           xlink:href="#path-5"
           id="use3795"
           style="fill:url(#linearGradient-4);fill-rule:evenodd"
           x="0"
           y="0"
           width="100%"
           height="100%" />
        <use
           xlink:href="#path-5"
           id="use3797"
           style="fill:none"
           x="0"
           y="0"
           width="100%"
           height="100%" />
      </g>
      <path
         d="m 188.71438,36.009939 c 0,0 38.08459,-1.593819 38.08459,41.833923 0,43.427738 -38.08459,42.920518 -38.08459,42.920518 V 271.91787 L 341.01872,117.50459 c 0,0 -29.80413,-2.12225 -29.80413,-38.574132 0,-36.451881 29.80413,-42.920519 29.80413,-42.920519 h 117.51301 c 0,0 34.31494,3.259786 34.31494,41.833923 0,24.266588 -13.98049,37.515128 -13.98049,37.515128 L 107.85934,487.22357 c 0,0 -12.789563,14.9358 -30.211814,14.9358 -17.422251,0 -27.766715,-6.51957 -27.766714,-26.07829 v -355.3167 c 0,0 -41.1364654,-1.08659 -41.1364635,-42.920518 3.2e-6,-41.833923 35.7125675,-41.833923 41.1364635,-41.833923 5.423895,0 138.833568,0 138.833568,0 z"
         id="v-shadow"
         sketch:type="MSShapeGroup"
         inkscape:connector-curvature="0"
         style="fill:#2d3436" />
      <path
         d="m 181.71438,30.009939 c 0,0 38.08459,-1.593819 38.08459,41.833923 0,43.427738 -38.08459,42.920518 -38.08459,42.920518 V 265.91787 L 334.01872,111.50459 c 0,0 -29.80413,-2.12225 -29.80413,-38.574132 0,-36.451881 29.80413,-42.920519 29.80413,-42.920519 h 117.51301 c 0,0 34.31494,3.259786 34.31494,41.833923 0,24.266592 -13.98049,37.515128 -13.98049,37.515128 L 100.85934,481.22357 c 0,0 -12.789563,14.9358 -30.211814,14.9358 -17.422251,0 -27.766715,-6.51957 -27.766714,-26.07829 v -355.3167 c 0,0 -41.1364654,-1.08659 -41.1364636,-42.920518 3.3e-6,-41.833923 35.7125676,-41.833923 41.1364636,-41.833923 5.423895,0 138.833568,0 138.833568,0 z"
         id="v-black-highlight"
         sketch:type="MSShapeGroup"
         inkscape:connector-curvature="0"
         style="fill:#000000" />
      <path
         d="m 179.71438,28.009939 c 0,0 38.08459,-1.593819 38.08459,41.833923 0,43.427738 -38.08459,42.920518 -38.08459,42.920518 V 263.91787 L 332.01872,109.50459 c 0,0 -29.80413,-2.12225 -29.80413,-38.574132 0,-36.451881 29.80413,-42.920519 29.80413,-42.920519 h 117.51301 c 0,0 34.31494,3.259786 34.31494,41.833923 0,24.266592 -13.98049,37.515128 -13.98049,37.515128 L 98.859344,479.22357 c 0,0 -12.789567,14.9358 -30.211818,14.9358 -17.422251,0 -27.766715,-6.51957 -27.766714,-26.07829 v -355.3167 c 0,0 -41.13646544,-1.08659 -41.13646355,-42.920518 3.27e-6,-41.833923 35.71256755,-41.833923 41.13646355,-41.833923 5.423895,0 138.833568,0 138.833568,0 z"
         id="v-back"
         sketch:type="MSShapeGroup"
         inkscape:connector-curvature="0"
         style="fill:#555753" />
      <path
         d="m 194.39067,41.406422 c 8.61508,4.551336 13.71349,13.058521 13.71349,28.36042 0,15.367228 -5.17201,24.144786 -13.90723,29.008821 -3.05191,1.699397 -6.40139,2.814617 -9.77621,3.430727 -1.1983,0.21876 -2.30694,0.35675 -3.28816,0.42992 -6.55425,-0.0223 -11.11299,4.47612 -11.11299,10.05105 v 151.15349 c 0,8.94224 10.84003,13.38873 17.11952,7.02229 L 339.44343,116.44986 c 5.99558,-6.0786 2.10712,-16.39061 -6.40925,-16.99703 -1.08856,-0.169495 -1.86241,-0.333805 -2.71517,-0.568354 -2.48572,-0.683692 -4.97558,-1.774554 -7.25865,-3.333279 -6.5765,-4.489973 -10.54058,-12.044642 -10.54058,-24.697759 0,-12.916835 4.22275,-21.580267 11.2822,-27.429465 2.45758,-2.036255 5.10999,-3.58514 7.74425,-4.693845 0.8965,-0.37732 1.70956,-0.668525 2.4091,-0.881462 0.56769,-0.160464 115.88158,0.08425 115.88158,0.08425 0.59709,0.214083 1.57452,0.433715 2.64445,0.735809 3.09316,0.873352 6.18684,2.210537 9.02175,4.073237 7.96046,5.230474 12.64875,13.581137 12.64875,27.024877 0,8.84486 -2.16039,16.516979 -5.74942,23.032924 -1.23454,2.241335 -2.54266,4.162141 -3.82315,5.746024 -0.4219,0.521861 -0.79912,0.95488 -1.11838,1.297006 -0.23586,0.244927 -371.375607,372.240857 -371.375607,372.240857 -0.704439,0.77816 -1.241067,1.34927 -2.085452,2.15289 -1.485786,1.41408 -3.206909,2.84092 -5.11307,4.16506 -5.178951,3.59764 -10.607559,5.68075 -15.934068,5.68075 -13.577058,0 -17.766714,-3.58357 -17.766714,-16.07829 v -355.3167 c 0,-5.42 -4.317841,-9.8534 -9.735948,-9.99651 -2.147866,-0.19234 -3.403354,-0.37282 -4.769101,-0.64038 -3.905717,-0.76516 -7.798529,-2.05563 -11.346605,-3.953467 -9.706518,-5.191937 -15.28481,-13.84859 -15.284809,-28.330164 1e-6,-15.86061 5.523064,-24.343712 15.060126,-28.691912 3.002936,-1.369118 6.302409,-2.255129 9.732485,-2.731816 2.348045,-0.326315 4.100651,-0.410195 6.343852,-0.410195 0.737645,0 0.737645,0 2.374189,0 2.056028,0 2.056028,0 4.891102,0 6.748826,0 6.748826,0 15.894712,0 21.168246,0 21.168246,0 46.171788,0 18.00221,0 18.00221,0 34.57297,0 14.38414,0 14.38414,0 24.97793,0 4.35771,0 4.35771,0 7.31082,0 2.17466,0 2.17466,0 2.64006,0 1.34459,-0.02768 3.00414,0.07068 5.06255,0.412239 3.23174,0.53625 6.41339,1.531752 9.30855,3.061264 z"
         id="v-white-stroke"
         sketch:type="MSShapeGroup"
         inkscape:connector-curvature="0"
         style="fill:#ffffff" />
      <path
         d="m 189.71948,50.248366 c 5.58947,2.95291 8.38468,8.430971 8.38468,19.518477 0,11.22032 -2.92698,17.017204 -8.77217,20.271979 -1.95529,1.088768 -4.23812,1.879401 -6.70719,2.330153 -0.80449,0.146868 -1.5631,0.244854 -2.23586,0.295021 -11.01751,-0.06777 -20.36937,8.614414 -20.36937,20.023364 v 151.15349 c 0,17.88448 21.68005,26.77746 34.23904,14.04457 L 346.56295,123.47214 c 11.99115,-12.1572 4.21424,-32.781207 -12.8185,-33.994054 -2.32732,-0.662936 -3.78263,-1.323393 -5.04558,-2.185653 -4.03923,-2.757703 -6.17909,-7.515884 -6.17909,-16.438995 0,-9.469886 2.60834,-15.541663 7.66234,-19.729215 1.59511,-1.321647 3.37744,-2.391859 5.24333,-3.177171 0.54527,-0.229494 1.0381,-0.408857 1.44194,-0.531783 -1.5253,0.433218 0.14806,0.372652 -2.3503,0.417911 1.74299,-0.01701 2.97533,-0.02257 4.58395,-0.02694 3.06818,-0.0083 7.47961,-0.01227 13.11945,-0.01211 9.93954,2.76e-4 23.45759,0.01317 39.66038,0.03617 6.75763,0.0096 13.85202,0.02077 21.17166,0.03321 8.93164,0.01518 17.7388,0.03144 26.03759,0.0477 2.90455,0.0057 5.53807,0.01098 7.85258,0.01572 1.28494,0.0026 1.28494,0.0026 2.13092,0.0044 0.61451,0.0013 -2.61178,-0.585191 -2.61178,-0.585191 0.61937,0.222072 1.1418,0.372611 1.96927,0.590896 0.95983,0.252234 1.15412,0.304927 1.33299,0.355431 2.26954,0.640802 4.39715,1.590936 6.24774,2.806878 5.45455,3.583948 8.14002,9.063544 8.14002,18.667491 0,6.799233 -1.56005,12.855179 -4.50859,18.208311 -0.90115,1.636046 -1.86841,3.081275 -2.84052,4.283704 -0.5765,0.680186 -86.20752,86.5117 -186.10565,186.64143 -40.6224,40.71657 -84.14298,84.33786 -127.66356,127.959 -15.23221,15.26741 -29.3764,29.44427 -42.0699,42.16707 -7.072096,7.08842 -7.072096,7.08842 -11.786826,11.81403 l -4.17072,4.18035 c -0.987382,1.07316 -1.332097,1.43127 -1.90033,1.97208 -1.18883,1.13145 -2.518914,2.21975 -3.924167,3.19593 -3.777675,2.62423 -7.270424,3.8936 -10.228884,3.8936 -2.810073,0 -4.862254,-0.17764 -6.255493,-0.49913 -1.331741,-1.58986 -1.511221,-3.2358 -1.511221,-5.57916 v -355.3167 c 0,-10.83999 -8.635683,-19.706792 -19.471896,-19.993024 -1.090576,-0.117513 -2.02823,-0.24527 -3.11063,-0.45732 -3.128802,-0.612953 -6.044318,-1.616192 -8.55255,-2.957825 -6.858985,-3.668814 -10.001388,-9.239774 -10.001387,-19.512346 0,-11.424852 2.940176,-16.735061 9.208568,-19.592988 1.998721,-0.91127 4.343683,-1.562259 6.960543,-1.925932 1.714367,-0.238251 2.972139,-0.315004 4.967352,-0.315004 1.425532,0 1.425532,0 2.374189,0 1.114758,0 1.114758,0 1.866208,0 1.409192,0 1.409192,0 3.024894,0 3.689939,0 3.689939,0 6.163189,0 1.377157,0 1.377157,0 2.964365,0 2.642206,0 2.642206,0 6.767158,0 12.332717,0 12.332717,0 20.216037,0 9.311633,0 9.311633,0 25.955751,0 10.30747,0 10.30747,0 16.48736,0 0.94245,0 0.94245,0 1.87209,0 6.20339,0 6.20339,0 16.21352,0 9.62902,0 9.62902,0 14.75242,0 4.43867,0 4.43867,0 10.22551,0 3.08302,0 3.08302,0 4.64381,0 1.11862,0 1.11862,0 2.66701,0 1.94102,0 1.94102,0 2.41649,0 1.28683,-0.01977 2.34123,0.06032 3.64918,0.277351 2.32567,0.385903 4.45766,1.078365 6.2743,2.038096 z"
         id="v-gradient"
         sketch:type="MSShapeGroup"
         inkscape:connector-curvature="0"
         style="fill:url(#linearGradient-6)" />
    </g>
  </g>
</svg>
